<?xml version="1.0" encoding="utf-8"?>
<!-- Generator: Adobe Illustrator 25.3.1, SVG Export Plug-In . SVG Version: 6.00 Build 0)  -->
<svg version="1.1" id="Layer_1" xmlns="http://www.w3.org/2000/svg" xmlns:xlink="http://www.w3.org/1999/xlink" x="0px" y="0px"
	 viewBox="0 0 184 24" style="enable-background:new 0 0 184 24;" xml:space="preserve">
<g>
	<path d="M1.9,24H0.4V0h1.6V24z M3.5,0H5v9.7h15.2V0h1.6v11.2H3.5V0z M21.7,24h-1.6v-9.7H5V24H3.5V12.8h18.3V24z M23.3,0h1.6v24
		h-1.6V0z"/>
	<path d="M49.5,5.9c-1.1-2.7-3.5-4.3-6.4-4.3s-5.3,1.7-6.4,4.3L29.5,24h-1.7l7.4-18.7C36.6,2,39.6,0,43.1,0c3.5,0,6.5,2,7.8,5.3
		L58.4,24h-1.7L49.5,5.9z M39.6,7c0.6-1.5,1.9-2.4,3.5-2.4c1.6,0,2.9,0.9,3.5,2.4l6.8,17h1.7l-7-17.5c-0.8-2.1-2.7-3.4-5-3.4
		s-4.1,1.3-5,3.4l-7,17.5h1.7L39.6,7z"/>
	<path d="M84.4,0v18.3c0,1.4-1.1,2.5-2.5,2.5h-0.5c-0.5,0-1-0.1-1.4-0.4c-0.7-0.4-1-0.9-1.4-1.5c-0.1-0.2-0.2-0.4-0.3-0.5
		c-0.1-0.2-0.2-0.3-0.2-0.5c-0.1-0.2-0.1-0.3-0.2-0.5L72.7,5.9c-0.1-0.2-0.1-0.3-0.2-0.5c-0.1-0.2-0.2-0.4-0.2-0.5
		c-0.1-0.2-0.2-0.4-0.3-0.6c-0.5-1-1.1-1.7-2.1-2.2c-0.7-0.4-1.4-0.6-2.2-0.6h-0.5c-2.3,0-4.2,1.9-4.2,4.2V24h-1.6V5.7
		c0-0.2,0-0.4,0-0.5h0.1V4.9c0-0.1,0-0.3,0-0.4c0.5-2.2,2.2-3.9,4.3-4.3C66.3,0,66.7,0,67.1,0h0.5c1,0,2.1,0.3,3,0.7
		c1.2,0.7,2,1.6,2.7,2.8c0.1,0.2,0.2,0.5,0.3,0.7c0.1,0.2,0.2,0.4,0.3,0.6C74,5,74,5.2,74.1,5.3l5.2,11.4c0.1,0.2,0.1,0.3,0.2,0.5
		c0.1,0.2,0.1,0.3,0.2,0.5c0.1,0.2,0.2,0.3,0.2,0.5c0.2,0.4,0.4,0.7,0.8,0.9c0.2,0.1,0.4,0.2,0.7,0.2h0.5c0.5,0,1-0.4,1-1V0H84.4z
		 M64.6,24h1.6V5.7c0-0.5,0.4-1,1-1h0.5c0.2,0,0.5,0.1,0.7,0.2c0.4,0.2,0.6,0.5,0.8,0.9c0.1,0.2,0.2,0.3,0.2,0.5
		c0.1,0.2,0.1,0.3,0.2,0.5c0.1,0.2,0.1,0.3,0.2,0.5l5.2,11.4c0.1,0.1,0.1,0.3,0.2,0.4c0.1,0.2,0.2,0.4,0.3,0.6
		c0.1,0.2,0.2,0.5,0.3,0.7c0.7,1.2,1.5,2.2,2.7,2.8c0.9,0.5,1.9,0.7,3,0.7h0.5c0.4,0,0.8,0,1.3-0.1c2.2-0.5,3.9-2.2,4.3-4.3
		c0-0.1,0-0.3,0-0.4v-0.3h0.1c0-0.2,0-0.4,0-0.5V0H86v18.3c0,2.3-1.9,4.2-4.2,4.2h-0.5c-0.8,0-1.5-0.2-2.2-0.6
		c-1-0.5-1.6-1.2-2.1-2.2c-0.1-0.2-0.2-0.4-0.3-0.6c-0.1-0.2-0.2-0.4-0.2-0.5c-0.1-0.2-0.1-0.3-0.2-0.5L71.2,6.6
		C71.1,6.5,71,6.3,71,6.2c-0.1-0.2-0.2-0.3-0.2-0.5c-0.1-0.2-0.2-0.4-0.3-0.5c-0.4-0.7-0.7-1.2-1.4-1.5c-0.4-0.2-0.9-0.4-1.4-0.4
		h-0.5c-1.4,0-2.5,1.1-2.5,2.5V24z"/>
	<path d="M91.6,20.9v-1.6h18.7c0.8,0,1.5-0.7,1.5-1.5c0-0.6-0.4-1.2-1-1.4l0,0l-16-4.3L94.7,12c-2.5-0.9-4.1-3.2-4.1-5.8
		c0-3.4,2.8-6.2,6.2-6.2h18.7v1.6H96.8c-2.6,0-4.6,2.1-4.6,4.6c0,2,1.2,3.7,3.1,4.4l0.1,0l16,4.3l0.1,0c1.2,0.4,2,1.6,2,2.9
		c0,1.7-1.4,3.1-3.1,3.1H91.6z M91.6,22.4V24h18.7c3.4,0,6.2-2.8,6.2-6.2c0-2.6-1.7-5-4.1-5.8l-0.2-0.1l-16-4.3l0,0
		c-0.6-0.2-1-0.8-1-1.4c0-0.8,0.7-1.5,1.5-1.5h18.7V3.1H96.8c-1.7,0-3.1,1.4-3.1,3.1c0,1.3,0.8,2.5,2,2.9l0.1,0l16,4.3l0.1,0
		c1.8,0.7,3.1,2.4,3.1,4.4c0,2.6-2.1,4.6-4.6,4.6H91.6z"/>
	<path d="M133.3,0h4.7c5,0,9,4.1,9,9v6c0,5-4.1,9-9,9h-9.4c-5,0-9-4.1-9-9V9c0-5,4.1-9,9-9H133.3l0,1.6h-4.7c-4.1,0-7.5,3.4-7.5,7.5
		v6c0,4.1,3.4,7.5,7.5,7.5h9.4c4.1,0,7.5-3.4,7.5-7.5V9c0-4.1-3.4-7.5-7.5-7.5h-4.7V0z M137.9,3.1h-4.7v1.6h4.7c2.4,0,4.4,2,4.4,4.4
		v6c0,2.4-2,4.4-4.4,4.4h-9.4c-2.4,0-4.4-2-4.4-4.4V9c0-2.4,2-4.4,4.4-4.4h4.7V3.1h-4.7c-3.3,0-5.9,2.7-5.9,5.9v6
		c0,3.3,2.7,5.9,5.9,5.9h9.4c3.3,0,5.9-2.7,5.9-5.9V9C143.9,5.8,141.2,3.1,137.9,3.1z"/>
	<path d="M165.3,18.3l-6.8-15l-0.3-0.4c-0.7-0.9-1.8-1.3-2.9-1.3c-0.3,0-0.6,0-0.8,0.1c-1.6,0.4-2.8,1.8-2.9,3.5c0,0.1,0,0.3,0,0.4
		V24H150V5.5c0-0.2,0-0.3,0-0.5l0,0c0.1-2.4,1.8-4.4,4.1-4.9c0.4-0.1,0.8-0.1,1.2-0.1c0.1,0,0.2,0,0.3,0c1.6,0.1,3.1,0.9,4.1,2.3
		l0.2,0.3l6.9,15.2l6.9-15.2l0.2-0.3c0.9-1.3,2.4-2.2,4.1-2.3c0.1,0,0.2,0,0.3,0c0.4,0,0.8,0,1.2,0.1c2.3,0.5,4,2.5,4.1,4.9l0,0
		c0,0.2,0,0.3,0,0.5V24h-1.6V5.5c0-0.1,0-0.3,0-0.4c-0.1-1.7-1.3-3.1-2.9-3.5c-0.3-0.1-0.6-0.1-0.8-0.1c-1.1,0-2.2,0.5-2.9,1.3
		l-0.3,0.4l-6.9,15c-0.2,0.4-0.9,2.2-1.3,2.5c-0.1,0-0.2,0-0.2,0s-0.2,0-0.2,0C166.2,20.5,165.5,18.7,165.3,18.3z M153,24h1.6V5.5
		c0,0,0-0.1,0-0.1l0,0v0c0-0.3,0.2-0.6,0.5-0.6c0,0,0.1,0,0.1,0c0.2,0,0.4,0.1,0.5,0.2l0,0l6.7,14.7c0.6,1.2,1.3,3.1,2.4,3.8
		c0.6,0.4,1.2,0.5,1.9,0.5s1.3-0.1,1.9-0.5c1.1-0.8,1.9-2.6,2.4-3.8l6.7-14.7l0,0c0.1-0.1,0.3-0.2,0.5-0.2c0,0,0.1,0,0.1,0
		c0.3,0.1,0.5,0.3,0.5,0.6v0l0,0c0,0,0,0.1,0,0.1V24h1.6v-0.9h0V5.5c0-0.1,0-0.2,0-0.3l0,0v0c0-1-0.7-1.9-1.7-2.1
		c-0.2,0-0.3-0.1-0.5-0.1c-0.7,0-1.3,0.3-1.7,0.8l-0.2,0.2l-6.8,14.9c-0.4,0.8-1.1,2.7-1.9,3.1c-0.3,0.2-0.7,0.2-1,0.2s-0.7,0-1-0.2
		c-0.8-0.5-1.5-2.3-1.9-3.1l-6.8-14.9L157,3.9c-0.4-0.5-1-0.8-1.7-0.8c-0.2,0-0.3,0-0.5,0.1c-1,0.2-1.7,1.1-1.7,2.1v0l0,0
		c0,0.1,0,0.2,0,0.3v17.6h0V24z"/>
</g>
</svg>
