<?xml version="1.0" encoding="utf-8"?>
<!-- Generator: Adobe Illustrator 25.3.1, SVG Export Plug-In . SVG Version: 6.00 Build 0)  -->
<svg version="1.1" id="Layer_1" xmlns="http://www.w3.org/2000/svg" xmlns:xlink="http://www.w3.org/1999/xlink" x="0px" y="0px"
	 viewBox="0 0 512 512" style="enable-background:new 0 0 512 512;" xml:space="preserve">
<style type="text/css">
	.st0{fill:#231F20;enable-background:new    ;}
	.st1{fill:#FFB71B;enable-background:new    ;}
	.st2{fill:#E43D30;enable-background:new    ;}
	.st3{fill:#001689;enable-background:new    ;}
	.st4{fill:#00754A;enable-background:new    ;}
	.st5{fill:#EDEDED;enable-background:new    ;}
	.st6{fill:#FFFFFF;enable-background:new    ;}
	.st7{fill:#010101;}
</style>
<g>
	<g>
		<path class="st0" d="M339.8,20.4L256.4,148L172.8,20.1c25.1-8.9,52-13.9,80-14.1c1.1,0,2.1,0,3.3,0h0.1c1.1,0,2.1,0,3.3,0
			C287.5,6.4,314.6,11.4,339.8,20.4z"/>
		<path class="st1" d="M369.1,33l-94,143.6l-18.9,28.7l-18.7-28.9L143.4,32.7c9.4-4.9,19.3-9,29.4-12.6l83.6,127.7l83.4-127.6
			C349.9,24,359.6,28.1,369.1,33z"/>
		<path class="st2" d="M506.1,256c0,109.1-70,202-167.4,236V328l131.6-201C492.9,164.6,506.1,208.7,506.1,256z"/>
		<path class="st3" d="M173.5,328v164.1C76.1,458,6.1,365.1,6.1,256c0-47.3,13.1-91.4,35.9-129.1L173.5,328z"/>
		<path class="st4" d="M450.6,99L314.8,306.7l-7.6,11.6l0,0l0,0v182.4c-16.4,3.4-33.6,5.3-51.1,5.3c-17.6,0-34.6-1.9-51.1-5.1V318.3
			l-7.6-11.6L61.5,99c22.1-27.4,50-50.1,81.9-66.3l94.1,144l18.9,28.9l18.9-28.7l94-143.7C400.8,49.1,428.5,71.7,450.6,99z"/>
		<path class="st5" d="M470.2,126.9l-131.6,201V492c-10.1,3.6-20.7,6.4-31.4,8.7V318.3l7.6-11.6L450.8,99
			C457.8,107.9,464.4,117.1,470.2,126.9z"/>
		<path class="st6" d="M204.9,318.3v182.4c-10.7-2.3-21.3-5.1-31.4-8.7V327.9l-131.6-201c5.9-9.7,12.4-19,19.4-27.7l136,207.7
			L204.9,318.3z"/>
	</g>
	<g>
		<g>
			<path class="st7" d="M198.1,307.6c0,0-4.9,24.9,4.3,33.3c0,0-1.3,0.9,12.6,5.3c0,0,6.1,3.4,6.7,15.1c0,0,1.6,49.7,17.4,78.3
				c0,0-1-31.9-10.3-51c0,0-5.4-8.7-3.7-25.3c0,0,1-8.1-0.1-12.4c0,0-8.1-7.9-9.3-11.7c0,0-2.3-15.1-15.3-16.7L198.1,307.6z"/>
			<path class="st7" d="M313.8,307.6c0,0,4.9,24.9-4.3,33.3c0,0,1.3,0.9-12.6,5.3c0,0-6.1,3.4-6.7,15.1c0,0-1.6,49.7-17.4,78.3
				c0,0,1-31.9,10.3-51c0,0,5.4-8.7,3.7-25.3c0,0-1-8.1,0.1-12.4c0,0,8.1-7.9,9.3-11.7c0,0,2.3-15.1,15.3-16.7L313.8,307.6z"/>
		</g>
		<path class="st7" d="M268.3,475.8c0,1.4-5.6,2.6-12.3,2.6c-6.9,0-12.3-1.1-12.3-2.6c0-1.1,3.9-2.1,9-2.4c0.1,0,0.4,0,0.6,0l0,0
			h0.1c2-0.7,1.4-2,1.4-2c-1-1.3-0.7-5.1-0.7-5.1c1-2,0.9-3.1,0.9-3.1c-0.3-2.4-1.6-3.7-2.1-4.1l0,0c-0.1-0.1-0.3-0.3-0.3-0.3l0,0
			c-1.7-0.7-3.9-2.3-6-4.1c-4-3.4-6.4-7.1-5.6-8.1c0.9-1,4.9,1,8.9,4.4c1.7,1.6,3.1,3,4.1,4.4c0,0,0.1,0.1,0.3,0.3
			c0.4,0.6,1.4,1.7,1.9,1.9c0.6-0.1,1.4-1.3,1.9-1.9c0,0,0-0.1,0.1-0.1l0.1-0.1l0,0c1-1.3,2.4-2.9,4.1-4.4c4-3.4,7.9-5.4,8.9-4.4
			c0.9,1-1.6,4.6-5.6,8.1c-2.1,1.9-4.4,3.4-6,4.1l0,0c0,0-0.1,0-0.3,0.3l0,0c-0.6,0.4-1.9,1.7-2.1,4.1c0,0,0,1.1,0.9,3.1
			c0,0,0.3,3.9-0.7,5.1c0,0-0.6,1.3,1.6,2c0,0,0,0,0.1,0l0,0C264.3,473.6,268.3,474.6,268.3,475.8z"/>
		<g>
			<g>
				<path class="st7" d="M190.8,291.9c0,0-45.4-31.9-53.1-44.7c0,0-15-20-22.9-49.7c0,0-3-10.3,7.1-8.4c0,0,13.1,3,23.1,18.7
					l45.7,81.7c0,0,1,1.4,1,1.7C191.8,291.5,191.8,292.6,190.8,291.9z"/>
				<path class="st7" d="M321.1,291.9c0,0,45.4-31.9,53.1-44.7c0,0,15-20,22.9-49.7c0,0,3-10.3-7.1-8.4c0,0-13.1,3-23.1,18.7
					l-45.7,81.7c0,0-1,1.4-1,1.7C320.1,291.5,320.1,292.6,321.1,291.9z"/>
			</g>
			<g>
				<path class="st7" d="M201.5,285.8c0,0,36.3-1.7,41.4-22c0,0,2.3-50.1-29.6-80.4c0,0-47-44.7-45.6-78.3c0,0-3.4-34.6,31-44.7
					c0,0-50.1,6.4-50.7,54.6c0,0-0.9,35,24.1,74C172.3,188.9,197.5,231.2,201.5,285.8z"/>
				<path class="st7" d="M310.4,285.8c0,0-36.3-1.7-41.4-22c0,0-2.3-50.1,29.6-80.4c0,0,47-44.7,45.6-78.3c0,0,3.4-34.6-31-44.7
					c0,0,50.1,6.4,50.7,54.6c0,0,0.9,35-24.1,74C339.7,188.9,314.4,231.2,310.4,285.8z"/>
			</g>
		</g>
	</g>
</g>
</svg>
